<?xml version="1.0" encoding="UTF-8"?>
<svg xmlns="http://www.w3.org/2000/svg" width="512" height="512" viewBox="0 0 512 512" role="img" aria-labelledby="title desc">
  <title id="title">Wrodium Facts logo</title>
  <desc id="desc">Simple roundel logo for Wrodium Facts.</desc>
  <defs>
    <linearGradient id="g" x1="0" y1="0" x2="1" y2="1">
      <stop offset="0%" stop-color="#0b66c3"/>
      <stop offset="100%" stop-color="#00c2ff"/>
    </linearGradient>
    <filter id="shadow" x="-50%" y="-50%" width="200%" height="200%">
      <feDropShadow dx="0" dy="6" stdDeviation="8" flood-color="#0b1e2d" flood-opacity="0.35"/>
    </filter>
  </defs>
  <rect x="0" y="0" width="512" height="512" fill="#0b1e2d"/>
  <g filter="url(#shadow)">
    <circle cx="256" cy="256" r="168" fill="url(#g)"/>
  </g>
  <g transform="translate(256,256)">
    <path d="M -92,64 L -124,-96 L -96,-96 L -74,20 L -44,-96 L -16,-96 L -7, -56 L 13,-56 L 22,-96 L 50,-96 L 80,20 L 102,-96 L 130,-96 L 98,64 L 62,64 L 32,-50 L 6,64 L -24,64 L -46,-50 L -72,64 Z" fill="#ffffff"/>
  </g>
  <text x="256" y="420" text-anchor="middle" fill="#eaf4ff" font-family="system-ui, -apple-system, Segoe UI, Roboto, Helvetica, Arial, sans-serif" font-size="28" letter-spacing="0.04em">WRODIUM FACTS</text>
</svg>

